<?xml version="1.0" encoding="utf-8"?>
<svg xmlns="http://www.w3.org/2000/svg" viewBox="0.665 0.383 133.671 39.233" width="135px" height="40px" preserveAspectRatio="none"><path d="M32.176 30.367S22.41 8.778 19.876 3.131C19.348 1.95 18.395.383 16.239.383h-.016c-2.066.007-3.006 1.509-3.594 2.815C10.493 7.951 2.52 24.276 1.272 27.038c-.995 2.2-.771 3.797.703 5.022q1.025.853 2.18.853 1.328 0 2.804-1.124c.913-.694 2.99-2.716 3.893-3.425 1.734-1.361 3.526-2.77 5.357-4.036 1.536-1.063 2.358-1.41 3.507-1.712.186-.05 2.894-.74 5 1.043 1.749 1.48 3.388 6.693 3.388 6.693zM20.293 18.915s-3.41.062-7.569 3.422c-1.486 1.201-8.58 6.944-8.603 6.93-.067-.04 12.261-25.363 12.261-25.363s4.457 10.21 6.802 15.435c-.906-.258-1.977-.445-2.891-.424M59.018 1.96c-1.277 0-2.24.98-2.24 2.28s.963 2.28 2.24 2.28c1.276 0 2.239-.98 2.239-2.28s-.963-2.28-2.239-2.28M58.978 9.671c-.973 0-1.765.807-1.765 1.798v18.988h3.532V11.469c-.001-.991-.793-1.798-1.767-1.798M66.794 2.04c-.974 0-1.766.806-1.766 1.797v26.619h3.532V3.839c0-.993-.791-1.8-1.766-1.8M81.66 9.43c-5.797 0-9.692 4.273-9.692 10.634 0 6.36 4.07 10.633 10.127 10.633 3.648 0 6.705-1.868 8.178-4.999a1.71 1.71 0 0 0-.09-1.633 1.62 1.62 0 0 0-1.39-.78h-.156c-.646 0-1.242.405-1.518 1.03-.88 2-2.798 3.147-5.26 3.147-3.647 0-6.082-2.543-6.2-6.476v-.129h15.468l.137-.01.011-.14c.039-.473.079-.962.079-1.411-.16-6.085-3.873-9.866-9.693-9.866m-5.788 8.394c.362-2.976 2.84-5.2 5.827-5.2 3.33 0 5.513 1.94 5.87 5.2zM126.063 9.43c-3.424 0-5.422 1.465-6.531 2.803l-.178-1.138a1.66 1.66 0 0 0-1.638-1.424c-.916 0-1.66.759-1.66 1.691v19.096h3.532V20.065c0-4.582 2.214-7.319 5.924-7.319 3.463 0 5.293 2.197 5.293 6.355v11.357h3.531V18.9c0-8.24-5.183-9.47-8.273-9.47M51.462 10.558a1.65 1.65 0 0 0-1.625 1.46l-.217 1.769c-1.42-2.274-3.763-3.47-6.807-3.47-5.777 0-9.81 4.373-9.81 10.634 0 6.46 3.85 10.633 9.81 10.633 3 0 5.269-1.143 6.752-3.4v1.883c0 4.248-2.08 6.313-6.358 6.313-3.285 0-5.474-1.42-6.006-3.896l-.026-.12h-3.919l.02.17c.498 4.368 4.212 7.082 9.695 7.082 6.719 0 10.127-3.173 10.127-9.429V12.224c-.002-.919-.736-1.666-1.636-1.666M49.604 21.03c0 4.309-2.663 7.318-6.477 7.318-3.897 0-6.515-2.973-6.515-7.4 0-4.426 2.618-7.399 6.515-7.399 3.814.002 6.477 3.077 6.477 7.48M111.7 27.253c-.739 0-1.091-.173-1.091-1.15v-8.369q-.008.003-.016.009-.005-1.028-.026-2.056c-.041-1.981-.624-3.73-2.381-4.907-2.832-1.897-8.799-1.99-11.996 1.218-.364.365-.69.77-1.053 1.187a1.54 1.54 0 0 0-.445 1.086c0 .845.672 1.53 1.501 1.53.455 0 .863-.207 1.138-.534l.003-.003c.035-.042.336-.444.336-.444 2.018-2.661 5.413-2.8 7.756-2.076 1.195.368 1.878 1.217 1.929 2.247.066 1.338-.438 2.286-1.699 2.744-.868.316-1.818.457-2.742.54-1.732.154-3.475.128-5.13.84-.96.415-1.749.955-2.337 1.638-.943 1.014-1.434 2.375-1.434 4.056 0 3.528 2.81 5.808 7.16 5.808 2.715 0 4.768-.97 6.264-2.966.169 1.89 1.282 2.737 3.554 2.737h1.821V27.25H111.7zm-4.565-4.172c-.124 1.503-.929 2.87-2.191 3.658-.829.517-1.974.907-3.548.932-2.432.04-3.922-1.202-4.003-3.05-.001-.04-.487-3.421 4.021-3.632 1.239-.058 2.492-.104 3.709-.339.99-.192 1.377-.46 2.107-.716.017.82-.009 2.098-.095 3.147" data-color="1" style="fill: rgb(255, 255, 255);" id="object-0" transform="matrix(0.9999999999999999, 0, 0, 0.9999999999999999, -8.881784197001252e-16, 0)"/></svg>